<svg xmlns:xlink="http://www.w3.org/1999/xlink" xmlns="http://www.w3.org/2000/svg" id="Layer_1" data-name="Layer 1" viewBox="0 0 552.59 198.59" width="552.59"  height="198.59" >
  <g>
    <g>
      <path d="M147.34,0s0,10.37-.02,23.5c-32.04-8.94-68.61-4.94-100.83,13.96C26.96,48.93,11.43,64.44,.49,82.09c-.32-2.76-.49-5.57-.49-8.42C0,34.75,30.17,2.89,68.41,.19c.03-.13,78.93-.19,78.93-.19Z" fill="#fbb040"/>
      <path d="M73.55,62.48c.98,0,1.92,.06,2.8,.18-4.32,1.96-8.58,4.17-12.78,6.62-5.67,3.33-11,6.99-15.99,10.96,4.22-9.21,12.84-17.76,25.97-17.76Z" fill="#f7941d"/>
      <path d="M147.32,23.5c0,8.96,0,19.2-.02,28.33-11.03-1.45-22.39-1.44-33.75,.09-7.21-9.83-19.98-15.36-35.57-15.36C36.23,36.57,10.04,71.52,7.81,106.72c-3.8-7.56-6.34-15.86-7.32-24.63,10.94-17.65,26.47-33.16,46-44.63,32.23-18.91,68.8-22.91,100.84-13.96Z" fill="#f7941d"/>
      <path d="M63.35,112.94c-.36,.36-.7,.72-1.05,1.09-.21,.21-.4,.43-.61,.64-1.64,1.77-3.21,3.6-4.69,5.48-.31,.4-.62,.79-.92,1.2-.33,.42-.64,.85-.95,1.27-.76,1.04-1.5,2.09-2.21,3.16-.29,.42-.57,.86-.85,1.29-.09,.14-.18,.29-.27,.43-.27,.42-.53,.84-.79,1.27-.29,.47-.57,.93-.84,1.4-1.84-1.27-3.44-2.76-4.76-4.5-2.46-3.46-3.7-8.89-3.7-12.35,7.7,.2,14.93,.08,21.65-.38Z" fill="#f15a29"/>
      <path d="M86.62,72.85c0,10.86-13.82,14.81-41.46,14.56,.51-2.34,1.31-4.78,2.42-7.17,4.98-3.96,10.31-7.63,15.99-10.96,4.2-2.46,8.46-4.67,12.78-6.62,6.46,.86,10.28,4.76,10.28,10.18Z" fill="#f15a29"/>
      <path d="M147.3,51.84c0,14.02-.03,25.4-.05,25.41-.16,3.4-.55,6.75-1.17,10.01-5.81-1.24-11.8-1.88-17.86-1.88-.88,0-1.75,.01-2.64,.04-.17,0-.34,.01-.5,.02-.39,0-.79,.03-1.18,.05-.46,.02-.91,.05-1.36,.08-.84,.05-1.68,.12-2.51,.21-.28,.02-.56,.05-.85,.08-.51,.05-1.03,.11-1.53,.17,1.51-3.98,2.29-8.45,2.29-13.42,0-8.13-2.3-15.1-6.39-20.68,11.36-1.53,22.71-1.54,33.75-.09Z" fill="#f15a29"/>
      <path d="M146.08,87.25c-4.48,24.04-20.63,43.98-42.36,53.7l-1.31-13.56c-9.62,4.69-20.73,7.65-33.81,7.65-7.45,0-13.74-1.66-18.44-4.87,.28-.47,.56-.94,.84-1.4,.26-.42,.52-.85,.79-1.27,.09-.14,.18-.29,.27-.43,.28-.43,.56-.86,.85-1.29,.71-1.07,1.45-2.12,2.21-3.16,.31-.42,.63-.85,.95-1.27,.3-.4,.61-.8,.92-1.2,1.48-1.88,3.05-3.7,4.69-5.48,.21-.21,.4-.43,.61-.64,.34-.37,.69-.73,1.05-1.09,28.67-1.96,47.96-10.16,54.31-26.92,.51-.06,1.02-.12,1.53-.17,.29-.03,.57-.06,.85-.08,.83-.08,1.68-.15,2.51-.21,.45-.03,.91-.05,1.36-.08,.39-.02,.78-.04,1.18-.05,.16,0,.33-.01,.5-.02,.88-.03,1.76-.04,2.64-.04,6.06,0,12.04,.64,17.86,1.88Z" fill="#ef4136"/>
    </g>
    <g>
      <path d="M211.19,35.01h18.76v103.6h-18.76v-7.9c-3.66,3.48-7.33,5.99-11.01,7.52-3.68,1.53-7.67,2.3-11.98,2.3-9.65,0-18-3.74-25.05-11.23-7.05-7.49-10.57-16.8-10.57-27.93s3.41-21,10.23-28.37c6.82-7.37,15.1-11.06,24.84-11.06,4.48,0,8.69,.85,12.63,2.54,3.93,1.69,7.57,4.24,10.91,7.63V35.01Zm-19.72,44.24c-5.8,0-10.61,2.05-14.45,6.15-3.83,4.1-5.75,9.35-5.75,15.77s1.95,11.77,5.85,15.94,8.71,6.25,14.41,6.25,10.77-2.05,14.65-6.15c3.88-4.1,5.82-9.47,5.82-16.11s-1.94-11.77-5.82-15.8c-3.88-4.03-8.79-6.05-14.72-6.05Z" fill="#606060"/>
      <path d="M341.05,55.31l-13.45,12.83c-9.15-9.67-19.45-14.51-30.89-14.51-9.66,0-17.79,3.3-24.4,9.9-6.61,6.6-9.92,14.74-9.92,24.41,0,6.74,1.46,12.72,4.39,17.95,2.93,5.23,7.07,9.33,12.42,12.31,5.35,2.98,11.3,4.47,17.85,4.47,5.58,0,10.69-1.04,15.31-3.13,4.62-2.08,9.7-5.88,15.24-11.38l13.04,13.61c-7.47,7.29-14.52,12.34-21.16,15.16-6.64,2.82-14.22,4.23-22.74,4.23-15.71,0-28.57-4.98-38.58-14.94-10.01-9.96-15.01-22.73-15.01-38.3,0-10.07,2.28-19.03,6.84-26.86,4.56-7.83,11.08-14.13,19.58-18.89,8.49-4.76,17.64-7.14,27.45-7.14,8.34,0,16.36,1.76,24.08,5.28,7.72,3.52,14.37,8.53,19.96,15.02Z" fill="#606060"/>
      <path d="M352.93,63.87h18.96v36c0,7.01,.48,11.88,1.44,14.6,.97,2.73,2.51,4.84,4.65,6.36,2.13,1.51,4.76,2.27,7.89,2.27s5.77-.74,7.95-2.23c2.18-1.49,3.8-3.68,4.86-6.56,.78-2.15,1.17-6.76,1.17-13.81V63.87h18.76v31.67c0,13.05-1.03,21.99-3.09,26.79-2.52,5.86-6.23,10.36-11.13,13.5-4.9,3.14-11.13,4.71-18.69,4.71-8.2,0-14.83-1.83-19.89-5.5-5.06-3.66-8.62-8.77-10.68-15.32-1.47-4.53-2.2-12.78-2.2-24.73v-31.12Z" fill="#606060"/>
      <path d="M432.56,35.01h18.76v103.6h-18.76V35.01Z" fill="#606060"/>
      <path d="M467.81,36.32h18.76v27.55h11.13v16.15h-11.13v58.6h-18.76v-58.6h-9.62v-16.15h9.62v-27.55Z" fill="#606060"/>
      <path d="M550.67,74.31l-11.61,11.61c-4.72-4.67-9-7.01-12.85-7.01-2.11,0-3.76,.45-4.95,1.34-1.19,.89-1.79,2-1.79,3.33,0,1.01,.38,1.94,1.13,2.78,.75,.85,2.62,2,5.6,3.47l6.87,3.43c7.24,3.57,12.2,7.21,14.91,10.92,2.7,3.71,4.05,8.06,4.05,13.05,0,6.64-2.44,12.18-7.32,16.63-4.88,4.44-11.42,6.67-19.62,6.67-10.9,0-19.6-4.26-26.11-12.78l11.54-12.57c2.2,2.57,4.77,4.64,7.73,6.22,2.95,1.58,5.58,2.37,7.87,2.37,2.47,0,4.47-.6,5.98-1.79,1.51-1.19,2.27-2.57,2.27-4.12,0-2.88-2.72-5.7-8.17-8.45l-6.32-3.16c-12.09-6.09-18.14-13.72-18.14-22.88,0-5.91,2.28-10.96,6.83-15.15s10.39-6.29,17.49-6.29c4.85,0,9.42,1.07,13.71,3.19,4.28,2.13,7.91,5.19,10.89,9.17Z" fill="#606060"/>
    </g>
  </g>
  <g>
    <path d="M275.79,158.53c.6-1.73,1.61-2.63,2.98-2.63s2.45,.9,3.04,2.63l10.51,30.81,9.02-31.4c.36-1.37,1.13-2.03,2.33-2.03,1.61,0,2.39,1.01,2.39,2.39,0,.18-.06,.48-.12,.89l-10.81,36.78c-.48,1.61-1.37,2.45-2.63,2.45-1.37,0-2.39-.83-2.98-2.45l-10.87-31.58-10.69,31.58c-.54,1.61-1.49,2.45-2.87,2.45s-2.33-.83-2.81-2.45l-11.1-36.06c-.12-.42-.18-.78-.18-1.2,0-1.61,1.01-2.81,2.87-2.81,1.25,0,2.03,.66,2.45,2.03l9.19,31.4,10.27-30.81Z" fill="#f15a29"/>
    <path d="M315.08,196.14c.24,2.93-5.02,2.93-4.78,0v-37.67c-.24-2.92,5.02-2.92,4.78,0v15.76c2.09-2.09,5.43-3.58,8.78-3.58,7.46,0,11.16,4,11.16,11.94v13.55c.24,2.93-5.01,2.93-4.78,0v-12.9c0-5.43-2.51-8.12-7.52-8.12-2.87,0-5.91,1.43-7.64,3.4v17.61Z" fill="#f15a29"/>
    <path d="M350.66,181.57c2.87,0,5.07,.6,6.69,1.73,0-5.73-1.13-8.48-6.09-8.48-1.73,0-3.52,.36-5.37,1.08-.3,.12-.6,.18-.9,.18-.9,0-1.49-.42-1.85-1.19-.12-.3-.18-.54-.18-.84,0-.95,.42-1.61,1.19-1.91,2.57-1.07,5.07-1.61,7.4-1.61,7.4,0,10.33,3.64,10.33,10.99v14.81c0,1.13-1.01,2.09-2.27,2.09s-2.27-.95-2.27-2.09v-1.79c-2.09,2.57-4.96,3.88-8.6,3.88-4.96,0-8.24-3.22-8.24-8.3s4.18-8.54,10.15-8.54Zm6.69,5.67c-1.67-1.19-3.7-1.79-6.03-1.79-3.16,0-5.73,1.55-5.73,4.42,0,2.63,1.79,4.24,4.84,4.24,2.69,0,4.96-1.13,6.93-3.46v-3.4Z" fill="#f15a29"/>
    <path d="M381.47,193.27c1.13,0,2.03,.77,2.03,1.97,0,.78-.42,1.37-1.25,1.91-1.43,.9-3.34,1.31-5.73,1.31-5.91,0-8.42-3.58-8.42-10.69v-21.85c-.24-2.93,5.02-2.93,4.78,0v5.19h7.58c1.25,0,2.27,1.01,2.27,2.21s-1.01,2.27-2.27,2.27h-7.58v11.7c0,4.48,1.61,6.69,4.78,6.69,1.13,0,3.34-.72,3.82-.72Z" fill="#f15a29"/>
    <path d="M386.9,166.77c-.72-.72-.72-1.55,0-2.27,1.13-1.25,1.67-2.86,1.67-4.78,0-.78-.12-1.49-.42-2.21-.18-.48-.24-.78-.24-.95,0-.48,.3-.9,.96-1.31l1.31-.78c.24-.12,.48-.18,.72-.18,.6,0,1.01,.24,1.31,.78,.54,1.01,.84,2.27,.84,3.64,0,3.4-1.25,6.09-3.82,8.06-.36,.3-.78,.42-1.25,.42-.42,0-.78-.12-1.08-.42Z" fill="#f15a29"/>
    <path d="M398.67,192.74c.42-.54,1.01-.84,1.67-.84,.54,0,.95,.12,1.37,.42,2.09,1.37,4.12,2.09,6.21,2.09,2.69,0,4.78-1.37,4.78-3.7,0-5.37-14.51-2.81-14.51-12.6,0-4.6,3.7-7.58,9.13-7.58,2.75,0,5.31,.66,7.64,2.03,.66,.42,.96,.95,.96,1.67,0,.42-.12,.78-.36,1.14-.42,.66-1.01,.95-1.79,.95-.42,0-.84-.12-1.19-.3-1.67-.89-3.34-1.31-5.02-1.31-2.63,0-4.3,1.49-4.3,3.34,0,5.61,14.51,3.04,14.51,12.42,0,5.31-4.48,8.12-10.39,8.12-3.17,0-5.97-.96-8.42-2.87-.54-.42-.78-.95-.78-1.67,0-.48,.18-.89,.48-1.31Z" fill="#f15a29"/>
    <path d="M467.69,189.15v-30.93c0-1.25,1.13-2.33,2.39-2.33s2.39,1.08,2.39,2.33v37.61c0,1.49-.9,2.57-2.15,2.57-1.01,0-2.03-.6-3.04-1.85l-24.96-31.47v30.99c0,1.25-1.13,2.33-2.39,2.33s-2.39-1.07-2.39-2.33v-37.38c0-1.61,.84-2.81,2.33-2.81,1.01,0,2.09,.72,3.22,2.15l24.6,31.11Z" fill="#f15a29"/>
    <path d="M506.32,184.14c-.06,.96-1.07,1.91-2.03,1.91h-18.87c.42,5.01,4.06,8.06,9.37,8.06,2.51,0,4.72-.54,6.57-1.61,.42-.24,.9-.36,1.31-.36,.6,0,1.13,.24,1.61,.78,.24,.3,.36,.66,.36,1.08,0,.78-.24,1.31-.72,1.61-2.81,1.97-5.97,2.99-9.49,2.99-4.36,0-7.82-1.25-10.45-3.82-2.63-2.57-3.94-5.97-3.94-10.21s1.25-7.4,3.7-10.09c2.45-2.63,5.85-3.94,10.15-3.94,3.52,0,6.51,1.13,8.9,3.4,2.39,2.33,3.58,5.26,3.58,8.9,0,.6,0,1.01-.06,1.31Zm-4.9-1.97c-.24-4.48-3.17-7.16-7.76-7.16s-8,2.93-8.54,7.16h16.3Z" fill="#f15a29"/>
    <path d="M520.71,181.27l6.63-9.14c.66-.89,1.37-1.31,2.15-1.31,1.43,0,2.27,.95,2.27,2.09,0,.48-.12,.9-.42,1.31l-7.28,9.85,7.76,10.57c.3,.42,.48,.95,.48,1.49,0,1.25-.9,2.27-2.39,2.27-.78,0-1.49-.42-2.15-1.31l-7.22-9.97-7.34,9.97c-.66,.89-1.37,1.31-2.21,1.31-1.37,0-2.15-.95-2.15-2.09,0-.54,.18-1.01,.48-1.43l7.82-10.57-7.1-9.85c-.3-.42-.42-.83-.42-1.37,0-1.55,2.33-3.76,4.54-.96l6.57,9.14Z" fill="#f15a29"/>
    <path d="M550.56,193.27c1.13,0,2.03,.77,2.03,1.97,0,.78-.42,1.37-1.25,1.91-1.43,.9-3.34,1.31-5.73,1.31-5.91,0-8.42-3.58-8.42-10.69v-21.85c-.24-2.93,5.02-2.93,4.78,0v5.19h7.58c1.25,0,2.27,1.01,2.27,2.21s-1.01,2.27-2.27,2.27h-7.58v11.7c0,4.48,1.61,6.69,4.78,6.69,1.13,0,3.34-.72,3.82-.72Z" fill="#f15a29"/>
  </g>
</svg>